<svg xmlns="http://www.w3.org/2000/svg" width="36" height="36" viewBox="0 0 36 36" fill="none"><g clip-path="url(#clip0_60_771)"><path d="M30.0994 17.1974H35.245C35.348 17.1974 35.4372 17.2817 35.4416 17.3841C35.6697 22.3908 33.2289 29.2684 26.5207 33.1097C19.9101 36.8947 11.5558 36.011 5.88258 30.8935C-0.102916 25.4942 -1.52651 17.092 1.63643 10.2893C4.9565 3.14967 11.9759 -0.18715 18.0388 0.00742452C18.1447 0.0108727 18.2284 0.0985542 18.2284 0.204462V5.35649C18.2284 5.46584 18.1388 5.55353 18.0294 5.55353C14.4256 5.53875 11.3208 6.78057 8.84404 9.44304C6.3269 12.1489 5.28211 15.3901 5.65451 19.0594C6.27764 25.1962 11.5671 29.9014 17.8127 29.8615C21.2392 29.8398 24.172 28.566 26.538 26.0897C28.8527 23.6671 29.929 20.7451 29.9024 17.3969C29.9014 17.2871 29.9896 17.1969 30.0994 17.1969V17.1974Z" fill="white"></path><path d="M29.9067 14.0767V9.53401C29.9067 9.44781 29.8042 9.40348 29.7411 9.46209C29.7214 9.48032 29.7027 9.49855 29.6845 9.51677C28.1624 11.0418 26.7078 12.6403 25.1866 14.1664C25.1704 14.1826 25.1384 14.1954 25.1157 14.1954C23.9276 14.1861 22.7739 14.19 21.5907 14.19H21.4045C21.3523 14.19 21.3089 14.1486 21.306 14.0964C21.302 14.0269 21.2991 13.9693 21.2991 13.9117C21.2986 12.8004 21.2932 11.7507 21.3055 10.6394C21.307 10.5084 21.373 10.2832 21.4646 10.1906C22.9493 8.68872 24.4423 7.19568 25.9349 5.70213C26.0817 5.55534 25.862 5.55485 25.862 5.55485H21.4454C21.3636 5.55485 21.2971 5.48835 21.2971 5.40658L21.3065 0.14766C21.3065 0.0658897 21.373 -0.000610352 21.4547 -0.000610352H35.3838C35.438 -0.000610352 35.4823 0.043723 35.4823 0.0979082V14.0314C35.4823 14.1132 35.4178 14.1934 35.336 14.1934L30.0254 14.1905C29.9682 14.1905 29.9062 14.1334 29.9062 14.0767H29.9067Z" fill="#D2191F"></path></g><defs><clipPath id="clip0_60_771"><rect width="35.4814" height="35.4411" fill="white"></rect></clipPath></defs></svg>