<svg xmlns="http://www.w3.org/2000/svg" width="732" height="227" viewBox="0 0 732 227" fill="none"><path d="M109.947 0.503291C133.976 0.503291 156.197 8.25322 174.246 21.3919C161.763 33.8753 149.278 46.3602 136.794 58.8436C128.775 54.6158 119.64 52.2231 109.947 52.2231C100.253 52.2231 91.1152 54.6158 83.0991 58.8436L70.611 46.3555C82.0358 39.2656 95.5147 35.1701 109.948 35.1701C117.916 35.1701 125.593 36.4192 132.793 38.73L146.464 25.0605C135.263 20.2326 122.918 17.5563 109.948 17.5563C84.4537 17.5563 61.3725 27.8895 44.6676 44.596C27.9611 61.3009 17.6279 84.3822 17.6279 109.875C17.6279 135.368 27.9611 158.451 44.6676 175.156C61.3725 191.862 84.4537 202.195 109.948 202.195C128.168 202.195 145.158 196.915 159.466 187.803L146.63 174.965C135.794 181.085 123.279 184.58 109.948 184.58C90.4426 184.58 72.6807 177.101 59.3783 164.859L71.449 152.788C81.6562 161.951 95.1509 167.527 109.948 167.527C124.746 167.527 138.295 161.929 148.51 152.73C160.709 164.93 172.91 177.129 185.108 189.328C165.513 207.872 139.058 219.245 109.95 219.245C80.8418 219.245 52.4033 207.003 32.6126 187.211C12.8204 167.418 0.578003 140.075 0.578003 109.872C0.578003 79.6692 12.8204 52.327 32.6126 32.5348C52.4049 12.7425 79.7487 0.500137 109.95 0.500137L109.947 0.503291Z" fill="white"></path><path d="M160.933 82.9278L109.948 133.912L58.9642 82.9278C54.7065 90.9676 52.2948 100.137 52.2948 109.867C52.2948 120.704 55.2877 130.845 60.4874 139.505L48.1474 151.847C40.0052 139.884 35.2434 125.431 35.2434 109.868C35.2434 89.2396 43.6061 70.5625 57.1244 57.0443C74.9036 74.4107 92.3677 92.2167 109.948 109.799L162.736 57.0112C176.782 70.7374 184.653 90.306 184.653 109.87C184.653 125.433 179.893 139.887 171.749 151.85L159.408 139.509C164.609 130.848 167.6 120.707 167.6 109.868C167.6 100.137 165.189 90.9707 160.933 82.9294" fill="#D2191F"></path><path d="M250.94 79.102C245.658 79.102 240.777 78.2328 236.298 76.4944C231.818 74.6891 227.94 72.1818 224.664 68.9724C221.387 65.763 218.813 61.9853 216.941 57.6393C215.136 53.2932 214.233 48.546 214.233 43.3977C214.233 38.2493 215.136 33.5021 216.941 29.156C218.813 24.81 221.387 21.0323 224.664 17.8229C228.007 14.6135 231.918 12.1396 236.398 10.4012C240.878 8.59596 245.759 7.69332 251.041 7.69332C256.122 7.69332 260.903 8.56253 265.383 10.3009C269.862 11.9725 273.64 14.5132 276.716 17.9232L272.002 22.637C269.127 19.6951 265.951 17.5889 262.474 16.3185C258.997 14.9813 255.253 14.3127 251.241 14.3127C247.029 14.3127 243.118 15.0481 239.507 16.5191C235.896 17.9232 232.754 19.9625 230.079 22.637C227.405 25.2446 225.299 28.3203 223.761 31.8639C222.29 35.3408 221.555 39.1853 221.555 43.3977C221.555 47.61 222.29 51.488 223.761 55.0316C225.299 58.5085 227.405 61.5841 230.079 64.2586C232.754 66.8662 235.896 68.9055 239.507 70.3765C243.118 71.7806 247.029 72.4826 251.241 72.4826C255.253 72.4826 258.997 71.814 262.474 70.4768C265.951 69.1395 269.127 67 272.002 64.058L276.716 68.7718C273.64 72.1818 269.862 74.756 265.383 76.4944C260.903 78.2328 256.089 79.102 250.94 79.102ZM316.743 79.102C311.461 79.102 306.546 78.2328 302 76.4944C297.52 74.6891 293.609 72.1818 290.266 68.9724C286.989 65.6961 284.415 61.9184 282.543 57.6393C280.738 53.2932 279.835 48.546 279.835 43.3977C279.835 38.2493 280.738 33.5355 282.543 29.2563C284.415 24.9103 286.989 21.1326 290.266 17.9232C293.609 14.647 297.52 12.1396 302 10.4012C306.48 8.59596 311.394 7.69332 316.743 7.69332C322.025 7.69332 326.906 8.59596 331.386 10.4012C335.865 12.1396 339.743 14.6135 343.02 17.8229C346.363 21.0323 348.937 24.81 350.742 29.156C352.614 33.5021 353.55 38.2493 353.55 43.3977C353.55 48.546 352.614 53.2932 350.742 57.6393C348.937 61.9853 346.363 65.763 343.02 68.9724C339.743 72.1818 335.865 74.6891 331.386 76.4944C326.906 78.2328 322.025 79.102 316.743 79.102ZM316.743 72.4826C320.955 72.4826 324.833 71.7806 328.377 70.3765C331.987 68.9055 335.097 66.8662 337.704 64.2586C340.379 61.5841 342.451 58.5085 343.922 55.0316C345.393 51.488 346.129 47.61 346.129 43.3977C346.129 39.1853 345.393 35.3408 343.922 31.8639C342.451 28.3203 340.379 25.2446 337.704 22.637C335.097 19.9625 331.987 17.9232 328.377 16.5191C324.833 15.0481 320.955 14.3127 316.743 14.3127C312.531 14.3127 308.619 15.0481 305.009 16.5191C301.398 17.9232 298.256 19.9625 295.581 22.637C292.973 25.2446 290.901 28.3203 289.363 31.8639C287.892 35.3408 287.156 39.1853 287.156 43.3977C287.156 47.5431 287.892 51.3877 289.363 54.9314C290.901 58.475 292.973 61.5841 295.581 64.2586C298.256 66.8662 301.398 68.9055 305.009 70.3765C308.619 71.7806 312.531 72.4826 316.743 72.4826ZM365.171 78.5002V8.29508H371.289L419.731 69.2733H416.521V8.29508H423.843V78.5002H417.725L369.383 17.522H372.593V78.5002H365.171ZM441.743 78.5002V8.29508H470.326C477.815 8.29508 484.367 9.79947 489.983 12.8083C495.667 15.7502 500.08 19.8622 503.222 25.1443C506.365 30.4264 507.936 36.5109 507.936 43.3977C507.936 50.2844 506.365 56.3689 503.222 61.651C500.08 66.9331 495.667 71.0785 489.983 74.0873C484.367 77.0293 477.815 78.5002 470.326 78.5002H441.743ZM449.164 72.0815H469.925C476.143 72.0815 481.525 70.878 486.072 68.4709C490.686 65.997 494.263 62.6205 496.803 58.3413C499.344 53.9953 500.615 49.0141 500.615 43.3977C500.615 37.7144 499.344 32.7332 496.803 28.454C494.263 24.1748 490.686 20.8317 486.072 18.4247C481.525 15.9508 476.143 14.7138 469.925 14.7138H449.164V72.0815ZM547.87 79.102C538.91 79.102 531.856 76.5278 526.708 71.3794C521.56 66.231 518.985 58.6088 518.985 48.5126V8.29508H526.407V48.2117C526.407 56.5026 528.279 62.6205 532.024 66.5654C535.768 70.5102 541.05 72.4826 547.87 72.4826C554.757 72.4826 560.072 70.5102 563.816 66.5654C567.561 62.6205 569.433 56.5026 569.433 48.2117V8.29508H576.654V48.5126C576.654 58.6088 574.08 66.231 568.931 71.3794C563.85 76.5278 556.829 79.102 547.87 79.102ZM606.273 78.5002V14.7138H581.6V8.29508H638.366V14.7138H613.694V78.5002H606.273ZM630.449 78.5002L662.543 8.29508H669.865L701.958 78.5002H694.136L664.649 12.6077H667.658L638.172 78.5002H630.449ZM643.086 59.7454L645.293 53.7278H686.112L688.319 59.7454H643.086ZM214.95 161.5V102.184H228.762L253.335 142.519H246.048L269.944 102.184H283.756L283.925 161.5H268.503L268.334 125.657H270.961L253.081 155.653H245.624L227.236 125.657H230.456V161.5H214.95ZM284.442 161.5L310.626 102.184H327.15L353.418 161.5H335.962L315.456 110.404H322.065L301.559 161.5H284.442ZM298.763 149.976L303.084 137.604H332.064L336.386 149.976H298.763ZM374.783 162.687C369.925 162.687 365.236 162.093 360.717 160.907C356.254 159.664 352.61 158.083 349.786 156.162L355.293 143.79C357.949 145.485 360.999 146.897 364.445 148.027C367.948 149.1 371.422 149.637 374.868 149.637C377.184 149.637 379.048 149.439 380.46 149.044C381.873 148.592 382.889 148.027 383.511 147.349C384.189 146.615 384.528 145.767 384.528 144.807C384.528 143.451 383.906 142.378 382.663 141.587C381.421 140.796 379.811 140.147 377.833 139.638C375.856 139.13 373.653 138.621 371.224 138.113C368.851 137.604 366.451 136.955 364.021 136.164C361.649 135.373 359.474 134.356 357.497 133.113C355.519 131.814 353.909 130.148 352.667 128.114C351.424 126.024 350.802 123.397 350.802 120.233C350.802 116.674 351.763 113.454 353.683 110.573C355.661 107.692 358.598 105.376 362.496 103.625C366.394 101.874 371.252 100.998 377.071 100.998C380.969 100.998 384.782 101.45 388.51 102.354C392.295 103.201 395.656 104.472 398.594 106.167L393.425 118.623C390.6 117.098 387.804 115.968 385.036 115.234C382.268 114.443 379.585 114.048 376.986 114.048C374.67 114.048 372.806 114.302 371.393 114.81C369.981 115.262 368.964 115.884 368.343 116.674C367.722 117.465 367.411 118.369 367.411 119.386C367.411 120.685 368.004 121.73 369.19 122.521C370.433 123.256 372.043 123.877 374.02 124.386C376.054 124.837 378.257 125.318 380.63 125.826C383.059 126.334 385.46 126.984 387.832 127.775C390.262 128.509 392.465 129.526 394.442 130.826C396.419 132.068 398.001 133.735 399.187 135.825C400.43 137.859 401.051 140.429 401.051 143.536C401.051 146.982 400.063 150.174 398.086 153.111C396.165 155.992 393.256 158.308 389.358 160.06C385.516 161.811 380.658 162.687 374.783 162.687ZM434.138 162.687C429.449 162.687 425.099 161.952 421.088 160.483C417.134 158.958 413.688 156.811 410.75 154.043C407.869 151.275 405.61 148.027 403.971 144.299C402.333 140.514 401.514 136.362 401.514 131.842C401.514 127.323 402.333 123.199 403.971 119.471C405.61 115.686 407.869 112.409 410.75 109.641C413.688 106.873 417.134 104.755 421.088 103.286C425.099 101.761 429.449 100.998 434.138 100.998C439.617 100.998 444.504 101.959 448.797 103.879C453.147 105.8 456.762 108.568 459.644 112.183L448.967 121.843C447.046 119.584 444.928 117.861 442.611 116.674C440.352 115.488 437.81 114.895 434.985 114.895C432.556 114.895 430.325 115.29 428.291 116.081C426.257 116.872 424.506 118.03 423.037 119.556C421.625 121.024 420.495 122.804 419.648 124.894C418.857 126.984 418.461 129.3 418.461 131.842C418.461 134.384 418.857 136.701 419.648 138.791C420.495 140.881 421.625 142.689 423.037 144.214C424.506 145.683 426.257 146.813 428.291 147.603C430.325 148.394 432.556 148.79 434.985 148.79C437.81 148.79 440.352 148.197 442.611 147.01C444.928 145.824 447.046 144.101 448.967 141.841L459.644 151.501C456.762 155.06 453.147 157.828 448.797 159.805C444.504 161.726 439.617 162.687 434.138 162.687ZM489.678 162.687C480.922 162.687 474.087 160.286 469.172 155.484C464.257 150.682 461.8 143.875 461.8 135.062V102.184H478.578V134.554C478.578 139.638 479.566 143.282 481.543 145.485C483.577 147.688 486.345 148.79 489.848 148.79C493.35 148.79 496.09 147.688 498.067 145.485C500.044 143.282 501.033 139.638 501.033 134.554V102.184H517.556V135.062C517.556 143.875 515.099 150.682 510.184 155.484C505.27 160.286 498.434 162.687 489.678 162.687ZM524.686 161.5V102.184H541.464V148.197H569.766V161.5H524.686ZM572.168 161.5V102.184H588.946V161.5H572.168ZM596.646 161.5V102.184H610.458L643.166 141.672H636.641V102.184H653.08V161.5H639.268L606.56 122.013H613.085V161.5H596.646ZM653.56 161.5L679.744 102.184H696.268L722.536 161.5H705.08L684.574 110.404H691.183L670.677 161.5H653.56ZM667.881 149.976L672.202 137.604H701.182L705.504 149.976H667.881Z" fill="white"></path><path d="M228.266 198.059H230.511V219.582H228.266V198.059ZM214.799 219.582H212.523V198.059H214.799V219.582ZM228.481 209.651H214.553V207.652H228.481V209.651ZM260.351 219.767C257.604 219.767 255.442 218.978 253.863 217.399C252.285 215.821 251.496 213.484 251.496 210.389V198.059H253.771V210.296C253.771 212.838 254.345 214.714 255.493 215.923C256.641 217.133 258.26 217.737 260.351 217.737C262.463 217.737 264.092 217.133 265.24 215.923C266.388 214.714 266.962 212.838 266.962 210.296V198.059H269.176V210.389C269.176 213.484 268.387 215.821 266.808 217.399C265.25 218.978 263.098 219.767 260.351 219.767ZM290.177 219.582V198.059H299.463C301.861 198.059 303.716 198.54 305.028 199.504C306.36 200.467 307.027 201.83 307.027 203.593C307.027 204.762 306.75 205.746 306.196 206.545C305.663 207.345 304.925 207.949 303.982 208.359C303.06 208.769 302.045 208.974 300.938 208.974L301.461 208.236C302.835 208.236 304.013 208.452 304.997 208.882C306.002 209.292 306.781 209.917 307.334 210.758C307.887 211.578 308.164 212.603 308.164 213.832C308.164 215.657 307.488 217.071 306.135 218.076C304.802 219.08 302.783 219.582 300.077 219.582H290.177ZM292.452 217.707H300.047C301.933 217.707 303.378 217.389 304.382 216.754C305.387 216.098 305.889 215.062 305.889 213.648C305.889 212.254 305.387 211.239 304.382 210.604C303.378 209.948 301.933 209.62 300.047 209.62H292.206V207.744H299.309C301.031 207.744 302.363 207.416 303.306 206.76C304.269 206.104 304.751 205.131 304.751 203.839C304.751 202.527 304.269 201.554 303.306 200.918C302.363 200.262 301.031 199.934 299.309 199.934H292.452V217.707ZM349.693 219.582V198.059H357.749C359.574 198.059 361.142 198.356 362.454 198.95C363.766 199.524 364.77 200.365 365.467 201.472C366.185 202.558 366.543 203.88 366.543 205.438C366.543 206.955 366.185 208.267 365.467 209.374C364.77 210.46 363.766 211.301 362.454 211.895C361.142 212.49 359.574 212.787 357.749 212.787H350.954L351.969 211.711V219.582H349.693ZM351.969 211.895L350.954 210.788H357.688C359.84 210.788 361.47 210.327 362.577 209.405C363.704 208.462 364.268 207.14 364.268 205.438C364.268 203.716 363.704 202.384 362.577 201.441C361.47 200.498 359.84 200.027 357.688 200.027H350.954L351.969 198.95V211.895ZM381.083 219.582L390.922 198.059H393.167L403.006 219.582H400.608L391.568 199.381H392.49L383.45 219.582H381.083ZM384.957 213.832L385.633 211.988H398.148L398.824 213.832H384.957ZM420.711 219.582V198.059H428.767C430.591 198.059 432.159 198.356 433.471 198.95C434.783 199.524 435.787 200.365 436.484 201.472C437.202 202.558 437.561 203.88 437.561 205.438C437.561 206.955 437.202 208.267 436.484 209.374C435.787 210.46 434.783 211.301 433.471 211.895C432.159 212.469 430.591 212.756 428.767 212.756H421.971L422.986 211.711V219.582H420.711ZM435.408 219.582L429.874 211.772H432.333L437.899 219.582H435.408ZM422.986 211.895L421.971 210.819H428.705C430.858 210.819 432.487 210.348 433.594 209.405C434.722 208.462 435.285 207.14 435.285 205.438C435.285 203.716 434.722 202.384 433.594 201.441C432.487 200.498 430.858 200.027 428.705 200.027H421.971L422.986 198.95V211.895ZM453.631 219.582L463.471 198.059H465.715L475.555 219.582H473.156L464.116 199.381H465.039L455.999 219.582H453.631ZM457.506 213.832L458.182 211.988H470.697L471.373 213.832H457.506ZM531.194 198.059H533.438V219.582H531.194V198.059ZM517.726 219.582H515.451V198.059H517.726V219.582ZM531.409 209.651H517.48V207.652H531.409V209.651ZM564.017 219.767C562.397 219.767 560.891 219.5 559.497 218.967C558.123 218.414 556.924 217.645 555.899 216.661C554.895 215.657 554.106 214.499 553.532 213.187C552.978 211.854 552.701 210.399 552.701 208.821C552.701 207.242 552.978 205.797 553.532 204.485C554.106 203.153 554.895 201.994 555.899 201.01C556.924 200.006 558.123 199.237 559.497 198.704C560.87 198.151 562.377 197.874 564.017 197.874C565.636 197.874 567.133 198.151 568.506 198.704C569.879 199.237 571.068 199.996 572.073 200.98C573.098 201.964 573.887 203.122 574.44 204.454C575.014 205.787 575.301 207.242 575.301 208.821C575.301 210.399 575.014 211.854 574.44 213.187C573.887 214.519 573.098 215.677 572.073 216.661C571.068 217.645 569.879 218.414 568.506 218.967C567.133 219.5 565.636 219.767 564.017 219.767ZM564.017 217.737C565.308 217.737 566.497 217.522 567.584 217.092C568.69 216.641 569.644 216.016 570.443 215.216C571.263 214.396 571.899 213.453 572.349 212.387C572.8 211.301 573.026 210.112 573.026 208.821C573.026 207.529 572.8 206.35 572.349 205.284C571.899 204.198 571.263 203.255 570.443 202.456C569.644 201.636 568.69 201.01 567.584 200.58C566.497 200.129 565.308 199.904 564.017 199.904C562.725 199.904 561.526 200.129 560.419 200.58C559.312 201.01 558.349 201.636 557.529 202.456C556.729 203.255 556.094 204.198 555.623 205.284C555.172 206.35 554.946 207.529 554.946 208.821C554.946 210.091 555.172 211.27 555.623 212.357C556.094 213.443 556.729 214.396 557.529 215.216C558.349 216.016 559.312 216.641 560.419 217.092C561.526 217.522 562.725 217.737 564.017 217.737ZM594.546 219.582V198.059H596.421L606.261 214.847H605.277L615.024 198.059H616.899V219.582H614.716V201.472H615.239L606.261 216.846H605.184L596.144 201.472H596.729V219.582H594.546ZM640.086 207.683H651.463V209.62H640.086V207.683ZM640.332 217.614H653.277V219.582H638.056V198.059H652.816V200.027H640.332V217.614ZM672.769 219.582V198.059H674.645L689.496 216.754H688.512V198.059H690.757V219.582H688.881L674.061 200.887H675.045V219.582H672.769ZM717.861 219.767C716.262 219.767 714.724 219.511 713.249 218.998C711.793 218.465 710.666 217.789 709.866 216.969L710.758 215.216C711.516 215.954 712.531 216.579 713.802 217.092C715.093 217.584 716.446 217.83 717.861 217.83C719.214 217.83 720.31 217.666 721.151 217.338C722.012 216.989 722.637 216.528 723.026 215.954C723.436 215.38 723.641 214.745 723.641 214.048C723.641 213.207 723.395 212.531 722.903 212.018C722.432 211.506 721.807 211.106 721.028 210.819C720.249 210.512 719.388 210.245 718.445 210.02C717.502 209.794 716.559 209.558 715.616 209.312C714.673 209.046 713.802 208.698 713.003 208.267C712.224 207.837 711.588 207.273 711.096 206.576C710.625 205.858 710.389 204.926 710.389 203.778C710.389 202.712 710.666 201.738 711.219 200.857C711.793 199.955 712.664 199.237 713.833 198.704C715.001 198.151 716.498 197.874 718.322 197.874C719.531 197.874 720.731 198.048 721.92 198.397C723.108 198.725 724.133 199.186 724.994 199.781L724.226 201.595C723.303 200.98 722.319 200.529 721.274 200.242C720.249 199.955 719.255 199.811 718.291 199.811C717 199.811 715.934 199.986 715.093 200.334C714.253 200.683 713.628 201.154 713.218 201.748C712.828 202.322 712.634 202.978 712.634 203.716C712.634 204.557 712.869 205.233 713.341 205.746C713.833 206.258 714.468 206.658 715.247 206.945C716.047 207.232 716.918 207.488 717.861 207.714C718.804 207.939 719.736 208.185 720.659 208.452C721.602 208.718 722.463 209.066 723.242 209.497C724.041 209.907 724.677 210.46 725.148 211.157C725.64 211.854 725.886 212.767 725.886 213.894C725.886 214.939 725.599 215.913 725.025 216.815C724.451 217.696 723.57 218.414 722.381 218.967C721.212 219.5 719.706 219.767 717.861 219.767Z" fill="white"></path></svg>