<svg xmlns="http://www.w3.org/2000/svg" width="1099" height="238" viewBox="0 0 1099 238" fill="none"><path d="M66.7445 48.8124C65.2849 41.178 59.4469 29.7263 42.7184 29.7263C23.6324 29.7263 15.6611 46.2302 15.6611 62.3972C15.6611 78.6765 23.6324 95.1804 42.7184 95.1804C59.5591 95.1804 66.0708 83.7287 66.7445 73.6243H76.8489C75.0525 91.3632 62.4782 104.162 42.7184 104.162C20.7133 104.162 5.5567 86.6478 5.5567 62.3972C5.5567 38.2589 20.7133 20.7446 42.7184 20.7446C62.3659 20.7446 74.9403 33.5435 76.8489 48.8124H66.7445ZM93.8001 102.59V22.3164H126.359C142.189 22.3164 152.855 30.849 152.855 45.1074C152.855 56.6714 147.353 63.0708 138.484 65.3163V65.5408C156.335 69.0212 149.823 100.569 153.977 101.917V102.59H143.087C139.607 99.2221 147.241 70.1439 126.92 70.1439H103.904V102.59H93.8001ZM103.904 31.2981V61.1622H124.001C132.309 61.1622 142.75 60.1518 142.75 46.2302C142.75 32.3085 132.309 31.2981 124.001 31.2981H103.904ZM170.685 22.3164H180.789V102.59H170.685V22.3164ZM248.1 82.4937H212.735L205.662 102.59H195.22L224.86 22.3164H236.087L265.614 102.59H255.173L248.1 82.4937ZM216.103 73.512H244.844L230.586 31.6349H230.361L216.103 73.512ZM279.925 102.59V22.3164H292.274L332.355 88.4441H332.58V22.3164H342.684V102.59H330.334L290.253 36.6871H290.029V102.59H279.925ZM363.382 102.59V22.3164H392.461C414.578 22.3164 428.163 36.6871 428.163 62.5095C428.163 88.3318 414.578 102.59 392.461 102.59H363.382ZM373.487 31.2981V93.6086H392.461C412.894 93.6086 418.058 78.2274 418.058 62.5095C418.058 46.7915 412.894 31.2981 392.461 31.2981H373.487ZM482.007 104.162C458.43 104.162 442.712 86.5355 442.712 62.3972C442.712 38.2589 458.43 20.7446 482.007 20.7446C505.584 20.7446 521.302 38.2589 521.302 62.3972C521.302 86.5355 505.584 104.162 482.007 104.162ZM482.007 95.1804C502.216 95.1804 511.198 79.687 511.198 62.3972C511.198 45.1074 502.216 29.7263 482.007 29.7263C461.799 29.7263 452.817 45.1074 452.817 62.3972C452.817 79.687 461.799 95.1804 482.007 95.1804ZM567.049 102.59V22.3164H580.859L606.007 89.0055H606.232L631.381 22.3164H645.19V102.59H635.086V36.5748H634.861L610.61 102.59H601.629L577.378 36.5748H577.154V102.59H567.049ZM675.961 56.5591H717.164V65.5408H675.961V93.6086H723.901V102.59H665.857V22.3164H722.554V31.2981H675.961V56.5591ZM741.311 102.59V22.3164H753.661L793.741 88.4441H793.966V22.3164H804.07V102.59H791.72L751.64 36.6871H751.415V102.59H741.311ZM824.993 22.3164H835.097V102.59H824.993V22.3164ZM855.928 102.59V22.3164H868.278L908.359 88.4441H908.583V22.3164H918.688V102.59H906.338L866.257 36.6871H866.033V102.59H855.928ZM976.198 104.162C952.621 104.162 936.903 86.5355 936.903 62.3972C936.903 38.2589 952.621 20.7446 976.198 20.7446C999.775 20.7446 1015.49 38.2589 1015.49 62.3972C1015.49 86.5355 999.775 104.162 976.198 104.162ZM976.198 95.1804C996.406 95.1804 1005.39 79.687 1005.39 62.3972C1005.39 45.1074 996.406 29.7263 976.198 29.7263C955.989 29.7263 947.007 45.1074 947.007 62.3972C947.007 79.687 955.989 95.1804 976.198 95.1804ZM1062 55.7732C1080.08 60.2641 1091.87 63.2954 1091.87 81.5956C1091.87 93.2718 1083.22 104.162 1062.9 104.162C1043.93 104.162 1029.22 94.0577 1028.1 75.6452H1038.2C1039.32 86.6478 1046.06 95.1804 1062.9 95.1804C1076.82 95.1804 1081.76 88.7809 1081.76 81.5956C1081.76 70.593 1075.81 68.5721 1057.85 64.4181C1045.84 61.6113 1031.47 57.4573 1031.47 41.8516C1031.47 29.1649 1041.23 20.7446 1058.97 20.7446C1076.04 20.7446 1087.94 29.5018 1089.29 46.1179H1079.18C1077.72 35.3399 1071.66 29.7263 1058.97 29.7263C1047.63 29.7263 1041.57 34.1049 1041.57 40.7289C1041.57 51.3946 1050.22 52.8542 1062 55.7732Z" fill="white"></path><path d="M889.247 234.973V129.538H935.992C965.337 129.538 983.033 148.413 983.033 182.329C983.033 216.245 966.812 234.973 937.467 234.973H889.247ZM915.79 151.214V213.296H933.338C949.854 213.296 956.49 201.499 956.49 182.329C956.49 163.159 949.854 151.214 933.338 151.214H915.79Z" fill="url(#paint0_linear_23_2)"></path><path d="M784.555 234.973V129.538H811.098L847.963 192.209H848.258V129.538H874.801V234.973H848.258L811.393 172.302H811.098V234.973H784.555Z" fill="url(#paint1_linear_23_2)"></path><path d="M770.908 196.928C770.908 223.176 758.668 237.332 726.816 237.332C694.965 237.332 682.725 223.176 682.725 196.928V129.538H709.268V196.928C709.268 210.642 715.167 215.655 726.816 215.655C738.466 215.655 744.364 210.642 744.364 196.928V129.538H770.908V196.928Z" fill="url(#paint2_linear_23_2)"></path><path d="M560.481 234.973V129.538H592.923L614.6 196.78H614.895L636.572 129.538H669.014V234.973H643.945V169.352H643.65L624.038 234.973H605.457L585.845 169.352H585.55V234.973H560.481Z" fill="url(#paint3_linear_23_2)"></path><path d="M473.041 237.332C439.567 237.332 420.839 214.033 420.839 182.181C420.839 150.477 439.567 127.178 473.041 127.178C506.22 127.178 525.243 150.477 525.243 182.181C525.243 214.033 506.22 237.332 473.041 237.332ZM473.041 215.655C492.211 215.655 498.699 200.614 498.699 182.181C498.699 163.896 492.211 148.855 473.041 148.855C453.723 148.855 447.383 163.896 447.383 182.181C447.383 200.614 453.723 215.655 473.041 215.655Z" fill="url(#paint4_linear_23_2)"></path><path d="M359.32 213.001H323.192L316.409 234.973H289.865L328.058 129.538H354.601L392.647 234.973H366.103L359.32 213.001ZM329.238 192.799H353.422L341.477 153.869H341.182L329.238 192.799Z" fill="url(#paint5_linear_23_2)"></path><path d="M196.867 234.973V129.538H246.561C270.008 129.538 284.164 140.302 284.164 160.21C284.164 174.219 275.906 183.066 262.782 186.015V186.31C289.178 190.882 279.593 231.729 285.639 233.498V234.973H258.063C252.902 230.549 262.487 198.255 239.925 198.255H223.41V234.973H196.867ZM223.41 151.214V176.578H241.4C252.017 176.578 257.621 172.744 257.621 163.896C257.621 155.048 252.017 151.214 241.4 151.214H223.41Z" fill="url(#paint6_linear_23_2)"></path><path d="M156.128 213.001H120L113.216 234.973H86.6732L124.866 129.538H151.409L189.454 234.973H162.911L156.128 213.001ZM126.046 192.799H150.229L138.285 153.869H137.99L126.046 192.799Z" fill="url(#paint7_linear_23_2)"></path><path d="M8.21875 234.973V129.538H59.3881C81.3599 129.538 95.0739 141.04 95.0739 163.159C95.0739 185.278 81.3599 196.78 59.3881 196.78H34.7619V234.973H8.21875ZM34.7619 151.214V175.103H53.7845C62.9272 175.103 68.5307 172.007 68.5307 163.159C68.5307 154.311 62.9272 151.214 53.7845 151.214H34.7619Z" fill="url(#paint8_linear_23_2)"></path><path d="M1080.86 170.936V156.823C1080.86 156.555 1080.55 156.417 1080.35 156.6C1080.29 156.656 1080.23 156.713 1080.17 156.769C1075.44 161.507 1070.93 166.473 1066.2 171.214C1066.15 171.265 1066.05 171.305 1065.98 171.305C1062.29 171.276 1058.7 171.288 1055.03 171.288H1054.45C1054.29 171.288 1054.15 171.159 1054.14 170.997C1054.13 170.781 1054.12 170.602 1054.12 170.423C1054.12 166.971 1054.1 163.71 1054.14 160.257C1054.15 159.85 1054.35 159.151 1054.64 158.863C1059.25 154.197 1063.89 149.558 1068.52 144.918C1068.98 144.462 1068.3 144.461 1068.3 144.461H1054.58C1054.32 144.461 1054.12 144.254 1054.12 144L1054.14 127.662C1054.14 127.408 1054.35 127.201 1054.61 127.201H1097.88C1098.05 127.201 1098.19 127.339 1098.19 127.507V170.795C1098.19 171.049 1097.98 171.299 1097.73 171.299L1081.23 171.289C1081.05 171.289 1080.86 171.112 1080.86 170.936H1080.86Z" fill="white"></path><path d="M1043.03 127.178C1045.25 127.178 1047.44 127.31 1049.59 127.566V144.737C1049.18 144.664 1048.77 144.596 1048.35 144.533C1039.75 143.237 1030.34 145.29 1022.52 150.168C1020.61 151.36 1020.51 151.549 1021.74 151.549C1022.23 151.549 1022.93 151.704 1023.29 151.893C1023.65 152.082 1024.17 152.237 1024.44 152.239C1024.72 152.239 1025 152.395 1025.07 152.585C1025.21 152.954 1027.75 153.107 1027.75 152.746C1027.75 152.33 1027.15 152.01 1026.36 152.01C1025.64 152.01 1025.53 151.937 1025.54 151.492C1025.56 151.054 1025.43 150.963 1024.69 150.902C1023.81 150.829 1023.81 150.829 1024.74 150.154C1026.09 149.18 1027.67 149.186 1028.33 150.168C1028.9 151.023 1030.4 151.157 1031.07 150.413C1031.29 150.169 1031.63 150.028 1031.81 150.099C1032.47 150.351 1031.01 151.549 1030.05 151.549C1029.03 151.549 1028.94 151.629 1029.08 152.361C1029.21 153.049 1031.18 153.212 1031.81 152.585C1032 152.396 1032.45 152.24 1032.8 152.24C1033.62 152.24 1033.98 151.342 1033.25 151.149C1032.96 151.075 1032.84 150.901 1032.92 150.695C1032.99 150.512 1033.04 150.319 1033.04 150.265C1033.04 150.212 1033.67 150.168 1034.42 150.168C1035.83 150.168 1036.17 150.418 1035.35 150.859C1034.66 151.225 1034.74 152.196 1035.48 152.476C1036.4 152.827 1036.5 152.761 1036.5 151.785C1036.5 150.686 1037.06 150.304 1039.03 150.057C1040.87 149.827 1043.86 151.15 1043.79 152.163C1043.76 152.68 1043.85 152.83 1044.26 152.889C1044.85 152.973 1044.87 153.023 1044.54 153.636C1044.38 153.946 1044.06 154.081 1043.5 154.081C1042.86 154.081 1042.66 154.195 1042.48 154.653C1042.25 155.271 1041.93 155.272 1039.83 154.661C1038.91 154.393 1038.91 154.393 1040.11 153.782C1041.6 153.013 1041.7 152.845 1040.95 152.352C1040.1 151.794 1038.32 152.021 1037.39 152.806C1037 153.127 1036.51 153.391 1036.29 153.391C1035.72 153.391 1035.54 153.64 1035.84 154.002C1036.03 154.24 1036 154.312 1035.71 154.312C1035.5 154.312 1035.27 154.467 1035.2 154.657C1035 155.164 1034.4 155.077 1034.25 154.52C1033.99 153.499 1029.32 155.712 1029.17 156.928C1029.08 157.682 1030.09 158.684 1030.95 158.689C1031.84 158.694 1032.08 158.942 1032.16 159.954C1032.26 161.198 1032.97 161.226 1033.62 160.012C1033.96 159.375 1034.32 159.078 1035 158.862C1035.92 158.57 1035.92 158.57 1035.99 157.244C1036.08 155.429 1036.63 155.035 1038.49 155.451C1039.77 155.737 1039.77 155.738 1039.64 156.533C1039.48 157.563 1039.85 157.71 1041.07 157.09C1042.29 156.469 1042.25 156.453 1042.25 157.626C1042.25 158.54 1042.33 158.686 1043.06 159.115C1044.13 159.748 1044.19 160.668 1043.17 161.022C1042.26 161.339 1042.3 161.735 1043.29 162.206C1044.83 162.942 1044.21 163.548 1042.45 163.022C1041.48 162.73 1041.37 162.499 1041.93 161.883C1042.13 161.66 1042.23 161.366 1042.14 161.232C1041.96 160.936 1041.33 160.905 1041.33 161.192C1041.33 161.677 1039.75 161.703 1039.27 161.226C1038.73 160.692 1038.32 160.633 1037.92 161.033C1037.52 161.44 1037.59 161.841 1038.11 162.121L1038.34 162.237C1038.89 162.54 1038.7 162.87 1037.99 162.693C1037.41 162.547 1035.81 163.553 1035.81 164.064C1035.8 164.207 1035.23 164.623 1034.54 164.988C1033.22 165.673 1030.97 167.994 1030.97 168.66C1030.97 168.859 1030.5 169.349 1029.92 169.748C1027.52 171.399 1027.24 171.757 1027.41 172.993C1027.56 174.103 1027.56 174.103 1026.8 173.784C1026.2 173.53 1026.04 173.328 1026.03 172.807C1026.02 172.151 1026.02 172.151 1023.84 172.081C1020.21 171.966 1018.61 173.071 1017.75 176.294C1017.24 178.219 1019.57 178.822 1021.76 177.332C1023.3 176.284 1023.64 176.509 1022.87 178.077C1022.64 178.549 1022.48 178.945 1022.51 178.959C1022.54 178.97 1023.04 179.099 1023.61 179.247C1024.64 179.517 1024.64 179.517 1024.71 181.068C1024.79 182.841 1024.88 182.936 1026.78 183.178C1028 183.333 1028 183.333 1028.97 182.266C1030.1 181.012 1031.75 180.924 1032.51 182.077C1032.9 182.678 1035.21 182.907 1035.39 182.364C1035.57 181.837 1036.48 182.437 1037.19 183.555C1037.92 184.68 1037.94 184.696 1039.11 184.696C1040.52 184.696 1040.82 185.024 1041.22 186.993C1041.54 188.549 1042.95 189.25 1045.84 189.282C1047.46 189.3 1047.48 189.304 1047.91 190.105C1048.14 190.547 1048.41 190.909 1048.5 190.91C1049.97 190.91 1050.02 192.018 1048.62 193.729C1047.87 194.641 1047.81 194.857 1047.65 196.881C1047.44 199.624 1046.86 200.348 1044.88 200.348C1043.38 200.348 1042.94 201.056 1043.32 202.897C1043.54 203.982 1043.53 204.032 1042.66 205.113C1042.17 205.721 1041.42 206.742 1041 207.382C1040.24 208.546 1038.46 209.555 1037.17 209.555C1036.57 209.556 1036.59 210.4 1037.19 210.591C1037.77 210.776 1037.76 210.956 1037.17 211.718C1036.6 212.439 1036.87 213.008 1037.79 213.008C1038.41 213.008 1038.44 213.172 1038.06 214.442C1037.79 215.343 1037.8 215.361 1038.68 216.097C1039.75 216.999 1039.61 217.381 1038.2 217.381C1035.87 217.381 1033.13 213.759 1033.33 210.944C1033.43 209.439 1033.4 209.308 1032.75 208.519C1032.08 207.703 1032.07 207.656 1032.32 206.395C1032.66 204.715 1032.65 204.492 1032.24 204.492C1031.95 204.491 1031.89 203.97 1031.89 201.193C1031.89 197.607 1031.65 197.176 1029.02 196.078C1028.5 195.859 1028.21 195.584 1028.21 195.302C1028.21 195.062 1027.53 194.014 1026.71 192.974C1025.82 191.861 1025.25 190.93 1025.31 190.709C1025.36 190.504 1025.48 189.736 1025.56 189.003C1025.7 187.776 1025.78 187.624 1026.62 187.074C1028.33 185.939 1027.8 183.775 1025.81 183.775C1024.53 183.775 1023.83 183.288 1022.38 181.396C1022.23 181.199 1021.54 180.895 1020.84 180.722C1019.85 180.476 1019.58 180.31 1019.58 179.962C1019.58 179.628 1019.39 179.499 1018.83 179.445C1018.42 179.405 1018.08 179.471 1018.08 179.591C1018.08 179.713 1017.39 179.637 1016.53 179.419C1014.65 178.945 1013.33 177.529 1013.91 176.606C1014.17 176.182 1014.08 175.951 1013.13 174.51C1012.41 173.433 1012 172.535 1011.9 171.829C1011.77 170.943 1011.66 170.757 1011.2 170.693C1010.45 170.586 1010.7 172.374 1011.66 173.938C1012.42 175.193 1012.53 175.951 1011.92 175.946C1010.77 175.935 1009.5 173.515 1009.71 171.73C1009.86 170.445 1009.86 170.445 1009.02 169.952C1008.29 169.519 1008.18 169.348 1008.18 168.56C1008.18 167.212 1007.85 167.472 1007.19 169.331C999.771 190.276 1011.67 213.153 1033.02 218.979C1037.56 220.216 1044.84 220.679 1048.47 219.96C1049.29 219.797 1050.53 219.555 1051.23 219.422C1058 218.134 1066.31 213.309 1071.2 207.818C1072.57 206.29 1072.63 206.103 1071.83 206.103C1071.28 206.103 1071.25 206.034 1071.25 204.812C1071.25 203.725 1071.14 203.384 1070.56 202.65C1069.95 201.871 1069.87 201.608 1069.87 200.182C1069.87 198.778 1069.8 198.522 1069.3 198.046C1068.53 197.324 1068.56 196.468 1069.42 194.926C1070.12 193.673 1070.12 193.672 1068.82 191.428C1067.46 189.086 1067.46 189.087 1067.65 186.313C1067.68 185.793 1067.58 185.726 1066.42 185.542C1065.72 185.432 1064.94 185.144 1064.68 184.904C1064.1 184.371 1063.03 184.335 1062.49 184.83C1062.23 185.06 1061.54 185.223 1060.63 185.27C1059.82 185.311 1058.81 185.413 1058.36 185.498C1057.54 185.656 1056.29 184.54 1054.29 181.857C1053.71 181.082 1053.76 178.707 1054.37 178.002C1054.85 177.44 1054.77 176.639 1054.22 176.639C1053.97 176.639 1053.76 176.544 1053.76 176.428C1053.76 176.312 1053.7 176.066 1053.63 175.881C1053.59 175.782 1053.69 175.614 1053.93 175.368H1097.68C1097.96 177.625 1098.1 179.923 1098.1 182.255C1098.1 212.673 1073.44 237.332 1043.03 237.332C1012.61 237.332 987.949 212.673 987.949 182.255C987.949 151.837 1012.61 127.178 1043.03 127.178ZM1030.24 165.648C1030.32 165.081 1029.9 164.989 1028.96 165.368C1028.07 165.726 1028.3 166.32 1029.3 166.238C1030 166.18 1030.18 166.064 1030.24 165.648ZM1027.77 163.519C1026.58 163.519 1025.54 165.564 1026.61 165.769C1026.92 165.827 1028.44 164.067 1028.44 163.654C1028.44 163.579 1028.14 163.519 1027.77 163.519ZM1031.83 164.584C1030.77 164.298 1030.58 164.428 1030.88 165.226C1031.09 165.774 1032.35 165.715 1032.35 165.158C1032.35 164.903 1032.14 164.666 1031.83 164.584ZM1029.82 163.519C1029.12 163.519 1028.78 164.427 1029.36 164.782C1029.72 165.01 1030.51 164.458 1030.51 163.971C1030.51 163.622 1030.35 163.519 1029.82 163.519ZM1037.43 164.024C1037.57 164.069 1037.68 164.204 1037.68 164.325C1037.68 164.445 1037.57 164.58 1037.43 164.625C1037.3 164.67 1037.19 164.535 1037.19 164.325C1037.19 164.114 1037.3 163.979 1037.43 164.024ZM1039.72 163.634C1040.04 163.244 1040.64 163.169 1040.64 163.519C1040.64 163.645 1040.5 163.749 1040.32 163.749C1040.14 163.749 1039.94 163.904 1039.87 164.094C1039.72 164.482 1038.9 164.562 1038.68 164.209C1038.61 164.083 1038.74 163.979 1038.99 163.979C1039.23 163.979 1039.56 163.824 1039.72 163.634ZM1032.12 163.736C1032.12 163.456 1031.5 163.453 1031.33 163.733C1031.25 163.851 1031.3 164.013 1031.43 164.092C1031.7 164.262 1032.12 164.046 1032.12 163.736ZM1010.95 162.258C1010.83 162.18 1010.51 162.457 1010.26 162.874C1009.46 164.189 1009.81 164.339 1010.71 163.068C1011 162.665 1011.09 162.344 1010.95 162.258ZM1030.17 162.598C1029.88 162.359 1029.82 162.392 1029.82 162.8C1029.82 163.081 1029.97 163.288 1030.17 163.288C1030.36 163.288 1030.51 163.197 1030.51 163.086C1030.51 162.975 1030.36 162.756 1030.17 162.598ZM1029.32 162.395C1028.97 161.834 1027.96 161.749 1027.06 162.205C1026.02 162.734 1026.34 163.166 1027.84 163.243C1029.39 163.324 1029.77 163.107 1029.32 162.395ZM1025.96 159.836C1026.03 159.204 1025.2 158.927 1024.54 159.36C1024.17 159.601 1024.42 160.761 1024.88 160.913C1025.29 161.048 1025.9 160.441 1025.96 159.836ZM1022.92 155.462C1022.92 154.953 1022.93 154.955 1021.71 155.279C1021.19 155.416 1020.84 155.648 1020.84 155.858C1020.84 156.107 1020.99 156.167 1021.36 156.068C1021.65 155.992 1022.11 155.928 1022.4 155.926C1022.76 155.924 1022.92 155.785 1022.92 155.462ZM1023 153.269C1022.86 152.919 1021.74 152.799 1021.44 153.103C1021.34 153.198 1021.14 153.276 1021 153.276C1020.85 153.276 1020.7 153.509 1020.66 153.793C1020.59 154.256 1020.68 154.312 1021.5 154.312C1022.5 154.312 1023.21 153.817 1023 153.269Z" fill="#DFBD74"></path><defs><linearGradient id="paint0_linear_23_2" x1="8.21875" y1="182.255" x2="983.033" y2="182.255" gradientUnits="userSpaceOnUse"><stop stop-color="#B2914A"></stop><stop offset="1" stop-color="#DFBE74"></stop></linearGradient><linearGradient id="paint1_linear_23_2" x1="8.21875" y1="182.255" x2="983.033" y2="182.255" gradientUnits="userSpaceOnUse"><stop stop-color="#B2914A"></stop><stop offset="1" stop-color="#DFBE74"></stop></linearGradient><linearGradient id="paint2_linear_23_2" x1="8.21875" y1="182.255" x2="983.033" y2="182.255" gradientUnits="userSpaceOnUse"><stop stop-color="#B2914A"></stop><stop offset="1" stop-color="#DFBE74"></stop></linearGradient><linearGradient id="paint3_linear_23_2" x1="8.21875" y1="182.255" x2="983.033" y2="182.255" gradientUnits="userSpaceOnUse"><stop stop-color="#B2914A"></stop><stop offset="1" stop-color="#DFBE74"></stop></linearGradient><linearGradient id="paint4_linear_23_2" x1="8.21875" y1="182.255" x2="983.033" y2="182.255" gradientUnits="userSpaceOnUse"><stop stop-color="#B2914A"></stop><stop offset="1" stop-color="#DFBE74"></stop></linearGradient><linearGradient id="paint5_linear_23_2" x1="8.21875" y1="182.255" x2="983.033" y2="182.255" gradientUnits="userSpaceOnUse"><stop stop-color="#B2914A"></stop><stop offset="1" stop-color="#DFBE74"></stop></linearGradient><linearGradient id="paint6_linear_23_2" x1="8.21875" y1="182.255" x2="983.033" y2="182.255" gradientUnits="userSpaceOnUse"><stop stop-color="#B2914A"></stop><stop offset="1" stop-color="#DFBE74"></stop></linearGradient><linearGradient id="paint7_linear_23_2" x1="8.21875" y1="182.255" x2="983.033" y2="182.255" gradientUnits="userSpaceOnUse"><stop stop-color="#B2914A"></stop><stop offset="1" stop-color="#DFBE74"></stop></linearGradient><linearGradient id="paint8_linear_23_2" x1="8.21875" y1="182.255" x2="983.033" y2="182.255" gradientUnits="userSpaceOnUse"><stop stop-color="#B2914A"></stop><stop offset="1" stop-color="#DFBE74"></stop></linearGradient></defs></svg>